<?xml version="1.0" standalone="no"?>
<!DOCTYPE svg PUBLIC "-//W3C//DTD SVG 20010904//EN"
 "http://www.w3.org/TR/2001/REC-SVG-20010904/DTD/svg10.dtd">
<svg version="1.0" xmlns="http://www.w3.org/2000/svg"
 width="595.000000pt" height="595.000000pt" viewBox="0 0 595.000000 595.000000"
 preserveAspectRatio="xMidYMid meet">
<metadata>
Created by potrace 1.14, written by Peter Selinger 2001-2017
</metadata>
<g transform="translate(0.000000,595.000000) scale(0.100000,-0.100000)"
fill="#000000" stroke="none">
<path d="M3205 4710 c-72 -9 -286 -59 -300 -70 -5 -5 -39 -18 -74 -30 -35 -11
-92 -38 -128 -58 -177 -102 -238 -141 -235 -151 1 -6 -1 -10 -5 -9 -5 2 -21
-9 -38 -24 -75 -67 -88 -78 -96 -78 -5 0 -9 -6 -9 -12 0 -7 -26 -38 -57 -68
-110 -107 -240 -306 -302 -463 -31 -78 -71 -213 -65 -219 2 -2 54 7 116 20
159 33 473 42 603 18 107 -20 235 -62 344 -112 69 -31 80 -40 83 -65 4 -25 -5
-42 -57 -102 -321 -375 -791 -613 -1295 -657 -63 -5 -135 -9 -160 -8 l-45 1
40 6 40 6 -49 8 c-27 4 -62 7 -78 7 -15 0 -36 4 -46 9 -9 5 -62 19 -117 31
-117 27 -225 60 -225 69 0 4 -8 7 -17 8 -19 1 -76 20 -106 35 -11 5 -42 8 -71
7 -29 -1 -58 1 -64 5 -15 9 -54 -12 -46 -25 4 -7 -1 -7 -14 0 -30 16 -35 14
-30 -14 3 -13 2 -22 -2 -20 -12 8 -30 -44 -30 -88 0 -56 69 -193 128 -256 24
-25 51 -56 59 -68 9 -13 20 -23 25 -23 5 0 53 -40 105 -90 53 -49 98 -88 102
-87 3 1 25 -11 48 -27 23 -15 47 -29 55 -30 7 -1 29 -11 48 -21 19 -11 49 -25
65 -31 17 -6 59 -24 95 -39 96 -40 172 -66 202 -70 15 -2 40 -11 57 -19 16 -9
38 -16 47 -16 10 0 48 -18 85 -40 37 -22 70 -40 74 -40 3 0 30 -16 60 -35 205
-131 427 -195 676 -195 190 0 366 37 529 112 48 22 84 31 138 34 40 2 78 7 85
10 8 5 8 3 0 -7 -7 -7 -13 -17 -13 -21 0 -11 98 -10 190 2 85 11 176 -7 187
-38 4 -9 17 -30 29 -45 21 -25 23 -35 18 -104 -2 -42 -8 -81 -13 -87 -5 -6
-17 -48 -26 -94 -10 -45 -22 -82 -28 -82 -5 0 -7 -14 -5 -33 6 -38 0 -60 -14
-51 -6 4 -8 2 -5 -3 4 -6 -11 -37 -32 -69 -22 -33 -38 -61 -35 -63 2 -2 31 13
65 34 33 20 77 39 98 42 20 2 63 18 96 34 68 34 235 164 235 183 0 7 12 23 27
37 l28 24 -20 -25 -20 -25 22 19 c12 10 21 22 20 25 -1 4 26 38 60 77 114 127
124 139 140 169 9 17 39 64 68 105 265 381 418 837 444 1319 5 96 7 181 4 188
-3 7 0 13 6 13 13 0 15 46 3 54 -5 3 -7 23 -6 45 1 23 -1 41 -5 41 -3 0 -7 15
-8 33 -2 38 -6 59 -21 112 -6 22 -13 49 -15 60 -2 11 -8 29 -12 40 -4 11 -23
60 -42 109 -32 84 -103 230 -130 265 -7 9 -33 45 -59 81 -45 60 -168 196 -223
244 -13 12 -29 26 -35 31 -89 81 -341 217 -496 268 -175 58 -453 87 -625 67z
m-350 -384 c200 -99 277 -334 175 -535 -38 -75 -100 -135 -179 -174 -62 -30
-72 -32 -176 -32 -102 0 -114 2 -169 30 -159 80 -251 262 -217 427 31 150 129
263 270 310 42 14 76 17 139 14 72 -3 95 -9 157 -40z m1952 -1418 c-3 -7 -5
-2 -5 12 0 14 2 19 5 13 2 -7 2 -19 0 -25z m-12 -75 c-10 -90 -44 -239 -76
-341 l-30 -92 -28 14 c-21 12 -31 12 -40 3 -6 -6 11 34 39 88 48 96 111 269
125 348 11 58 18 44 10 -20z"/>
</g>
</svg>
