<?xml version="1.0" standalone="no"?>
<!DOCTYPE svg PUBLIC "-//W3C//DTD SVG 20010904//EN"
 "http://www.w3.org/TR/2001/REC-SVG-20010904/DTD/svg10.dtd">
<svg version="1.0" xmlns="http://www.w3.org/2000/svg"
 width="500.000000pt" height="500.000000pt" viewBox="0 0 500.000000 500.000000"
 preserveAspectRatio="xMidYMid meet">
<metadata>
Created by potrace 1.14, written by Peter Selinger 2001-2017
</metadata>
<g transform="translate(0.000000,500.000000) scale(0.100000,-0.100000)"
fill="#000000" stroke="none">
<path d="M3330 4063 c-14 -2 -32 -7 -40 -10 -8 -3 -20 -7 -27 -9 -22 -4 -108
-49 -133 -69 -13 -11 -46 -41 -72 -66 -26 -25 -50 -44 -53 -41 -3 3 -5 0 -5
-6 0 -6 -21 -39 -48 -74 -26 -35 -60 -91 -77 -125 -16 -35 -33 -63 -37 -63 -4
0 -5 -7 -2 -15 4 -8 1 -15 -6 -15 -7 0 -9 -8 -5 -19 3 -11 -1 -26 -10 -35 -9
-9 -13 -21 -9 -27 4 -8 3 -9 -4 -5 -7 4 -12 1 -12 -8 0 -9 -3 -16 -7 -17 -5 0
-16 -2 -25 -4 -10 -2 -21 2 -25 7 -3 7 -1 8 5 4 7 -4 12 -1 12 8 0 9 5 16 11
16 5 0 8 4 5 9 -4 5 -14 8 -24 6 -9 -2 -19 -4 -22 -4 -3 -1 1 -5 8 -10 11 -7
10 -9 -3 -14 -9 -4 -14 -3 -12 1 2 4 -7 17 -20 29 -13 12 -23 20 -23 17 0 -3
-14 4 -31 16 -16 12 -28 25 -25 28 3 3 14 -2 24 -11 10 -10 22 -14 27 -10 4 5
5 2 0 -6 -5 -9 -4 -12 3 -8 5 4 8 17 4 29 -3 14 -2 19 6 14 7 -4 12 -2 12 3 0
12 -27 10 -47 -2 -6 -4 -14 -3 -18 3 -3 5 -11 10 -17 10 -6 0 -8 -3 -5 -7 4
-3 2 -12 -4 -19 -7 -8 -7 -14 1 -19 5 -3 10 -3 10 2 0 10 20 -19 20 -29 0 -5
-5 -8 -11 -8 -5 0 -7 5 -4 10 3 6 0 10 -8 10 -16 0 -30 27 -22 40 3 4 1 19 -4
32 l-10 23 0 -23 c-1 -13 -5 -20 -11 -17 -6 4 -8 10 -6 14 3 4 -5 8 -17 8 -20
2 -20 1 -4 -8 13 -8 15 -14 8 -23 -8 -9 -7 -13 4 -13 8 0 12 3 10 7 -2 4 2 7
10 7 11 0 12 -4 4 -13 -7 -8 -7 -14 1 -19 5 -3 10 -14 9 -23 0 -14 -2 -14 -6
-2 -13 35 -24 40 -51 23 -15 -9 -24 -13 -20 -9 4 5 1 15 -7 22 -16 16 -29 19
-20 4 3 -5 1 -10 -5 -10 -7 0 -10 7 -6 15 3 10 -1 15 -13 15 -10 0 -21 -6 -24
-14 -6 -15 -54 -19 -63 -5 -3 5 -10 9 -15 9 -6 0 -7 -4 -4 -10 3 -5 1 -10 -4
-10 -13 0 -14 11 -3 25 10 14 32 17 29 4 -1 -6 3 -13 9 -16 6 -2 11 3 11 12 0
8 -4 15 -9 15 -4 0 -7 3 -7 8 3 19 -2 33 -10 27 -5 -3 -12 3 -15 12 -4 15 -5
15 -4 -2 1 -37 -2 -46 -12 -40 -5 3 -7 12 -3 20 3 8 0 15 -7 15 -6 0 -8 -4 -5
-10 3 -5 1 -10 -5 -10 -7 0 -10 -6 -7 -12 2 -7 11 -12 18 -10 9 1 8 -3 -3 -11
-10 -8 -15 -17 -11 -20 3 -4 1 -7 -6 -7 -7 0 -10 7 -7 18 4 13 1 18 -14 18
-23 0 -25 -7 -9 -23 9 -9 7 -11 -7 -9 -11 2 -24 -1 -30 -5 -8 -6 -17 -1 -27
14 -12 19 -13 24 -2 24 8 0 14 -3 13 -6 -2 -20 3 -31 12 -26 7 4 7 12 0 25
-14 25 -13 30 4 24 8 -3 12 -13 10 -22 -4 -14 -3 -13 6 1 14 22 11 25 -18 30
-12 2 -25 6 -28 10 -4 4 -12 7 -18 7 -6 0 -3 -5 7 -11 9 -5 17 -15 17 -21 0
-7 -4 -7 -12 -1 -7 6 -26 9 -43 8 -16 -1 -39 3 -50 7 -19 9 -19 8 -2 -6 11 -8
25 -12 31 -10 7 3 13 -2 13 -9 0 -8 -10 -14 -23 -14 -15 0 -21 4 -17 11 4 6
-2 4 -12 -4 -17 -14 -18 -13 -12 5 6 14 0 11 -18 -10 -15 -16 -24 -22 -21 -13
2 9 -1 19 -8 21 -10 4 -12 -1 -9 -14 3 -11 0 -19 -6 -19 -7 0 -9 6 -5 13 4 6
-4 2 -18 -10 -13 -13 -29 -23 -35 -23 -15 0 -24 -28 -12 -35 5 -4 8 -1 7 7 -2
7 3 12 10 11 6 -2 12 3 12 10 0 8 3 7 10 -3 5 -8 13 -11 17 -6 4 5 2 11 -5 13
-6 3 -10 9 -6 14 3 5 12 5 23 -1 14 -7 24 -4 41 13 22 20 23 20 17 2 -7 -20
-7 -20 8 -1 9 12 15 15 15 7 0 -10 3 -11 14 -2 9 8 16 8 20 2 4 -5 1 -13 -5
-17 -8 -4 -7 -9 2 -15 7 -4 11 -10 8 -13 -3 -3 -15 3 -26 14 -22 20 -35 17
-27 -5 8 -19 -17 -30 -30 -14 -17 22 -40 23 -32 2 4 -9 4 -14 0 -10 -4 4 -18
-5 -31 -19 -12 -14 -23 -21 -23 -15 0 5 5 13 10 16 6 3 10 11 10 17 0 6 -8 4
-18 -5 -12 -11 -22 -13 -32 -7 -19 12 -20 32 -1 46 11 9 12 12 1 19 -9 6 -11
4 -5 -5 6 -9 4 -12 -6 -8 -10 4 -15 -1 -16 -16 0 -11 -4 -30 -8 -41 -5 -16 -5
-17 4 -5 11 15 24 9 27 -14 2 -14 -19 -16 -32 -4 -3 4 -12 4 -20 1 -9 -3 -14
2 -14 13 0 16 2 17 10 4 5 -8 10 -10 10 -5 0 6 -4 16 -9 24 -7 11 -10 9 -16
-8 -7 -24 -20 -26 -54 -7 -14 8 -32 11 -40 8 -10 -4 -12 -1 -6 9 7 11 6 12 -7
2 -8 -7 -18 -10 -22 -5 -13 13 -182 19 -251 9 -67 -10 -166 -46 -214 -77 -49
-32 -129 -100 -117 -100 4 0 -5 -12 -19 -27 -23 -26 -54 -100 -62 -148 -7 -44
-8 -145 -2 -145 3 0 5 -12 4 -27 -1 -16 5 -43 12 -60 13 -32 12 -33 -35 -80
-59 -59 -114 -132 -106 -144 3 -5 1 -9 -4 -9 -5 0 -9 -18 -9 -40 0 -22 4 -40
7 -40 4 0 7 -6 7 -12 1 -33 40 -112 83 -169 30 -40 109 -119 118 -119 3 0 16
-10 27 -23 23 -25 130 -97 145 -97 5 0 10 -5 10 -11 0 -5 5 -7 10 -4 5 3 10 1
10 -4 0 -6 4 -11 9 -11 5 0 22 -5 38 -12 15 -6 37 -13 48 -15 10 -2 22 -7 25
-11 3 -4 12 -8 20 -8 8 -1 31 -5 50 -10 19 -4 45 -8 56 -8 15 -1 20 -6 16 -16
-5 -13 -3 -13 10 -2 12 10 18 10 23 1 6 -8 10 -7 16 2 5 9 9 9 9 3 0 -15 35
-24 49 -13 6 5 9 6 6 3 -3 -4 1 -14 7 -23 7 -9 8 -13 4 -9 -5 5 -18 -6 -28
-22 -25 -42 -23 -46 8 -13 15 17 24 21 20 11 -2 -9 0 -18 5 -20 5 -2 11 -13
12 -26 0 -12 5 -22 10 -22 5 0 6 -10 3 -22 -3 -13 -3 -17 0 -10 9 20 23 14 19
-9 -3 -12 -2 -19 2 -16 11 12 45 -14 39 -30 -5 -12 -4 -13 7 -5 17 14 27 6 21
-16 -4 -13 -3 -13 6 1 11 18 12 18 27 0 8 -10 12 -13 9 -6 -4 7 1 9 14 6 11
-3 20 -12 20 -19 0 -8 5 -14 10 -14 6 0 9 -3 8 -7 -3 -18 24 -67 52 -93 39
-37 110 -50 146 -28 6 4 17 -4 25 -20 8 -15 17 -29 21 -32 3 -3 8 -12 10 -20
4 -19 76 -80 94 -80 8 0 14 -4 14 -8 0 -5 17 -7 38 -4 20 2 43 4 49 4 7 1 15
10 19 20 3 10 10 15 16 12 8 -5 9 -1 5 10 -11 28 1 36 31 21 39 -20 83 -35
110 -37 6 -1 12 -4 12 -7 0 -3 15 -7 33 -8 70 -5 77 -6 81 -12 8 -13 321 5
321 19 0 2 18 6 64 14 19 4 42 11 51 16 9 5 30 12 46 14 16 3 54 18 84 33 30
15 57 28 60 28 19 6 47 21 58 32 7 7 20 13 28 13 8 0 14 4 14 8 0 4 14 16 31
26 31 18 165 146 154 146 -3 0 3 10 15 22 11 12 20 25 20 29 0 4 7 15 16 23 8
9 18 28 20 43 3 15 11 31 17 35 7 4 9 8 5 8 -4 0 -3 12 3 26 5 15 13 43 16 63
8 45 6 199 -3 220 -4 9 -9 27 -11 41 -2 14 -13 44 -23 67 -11 24 -20 45 -20
49 0 3 -7 12 -15 21 -8 8 -13 19 -10 24 4 5 2 9 -2 9 -5 0 -17 13 -26 30 -10
16 -25 36 -33 45 -14 14 -11 17 30 36 25 11 46 25 46 31 0 6 3 8 6 5 16 -16
182 142 215 205 6 13 15 25 18 28 9 8 65 123 67 140 2 8 12 46 23 84 11 38 18
73 15 77 -3 5 -2 9 3 9 11 0 13 20 17 198 2 85 0 152 -5 152 -5 0 -9 10 -9 23
0 54 -98 126 -166 121 -16 -1 -23 8 -34 45 -13 47 -37 97 -56 117 -6 7 -21 25
-35 41 -25 30 -111 93 -127 93 -5 0 -23 7 -41 16 -32 16 -165 26 -221 17z m69
-41 c6 -12 6 -23 0 -33 -9 -12 -10 -12 -6 1 2 8 0 23 -5 33 -5 9 -6 17 -4 17
3 0 10 -8 15 -18z m46 -14 c3 1 11 2 18 2 8 0 7 -3 -3 -10 -16 -10 -50 14 -50
34 0 6 7 2 16 -9 8 -11 17 -19 19 -17z m58 -8 c10 -16 16 -30 14 -30 -2 0 -13
14 -25 30 -13 17 -19 30 -14 30 4 0 16 -13 25 -30z m27 -5 c0 -5 -5 -3 -10 5
-5 8 -10 20 -10 25 0 6 5 3 10 -5 5 -8 10 -19 10 -25z m-240 4 c0 -5 -4 -7
-10 -4 -9 5 -14 -8 -7 -19 1 -2 -6 -13 -16 -23 -9 -11 -15 -22 -12 -25 3 -3
-4 -13 -14 -22 -16 -14 -23 -15 -38 -6 -16 9 -15 10 7 5 25 -6 25 -6 5 12 -20
17 -20 19 -3 36 10 9 18 13 18 8 0 -6 -4 -13 -10 -16 -6 -4 -5 -11 3 -19 14
-16 28 -11 21 8 -3 7 2 16 11 20 9 3 13 11 10 16 -7 12 12 40 26 40 5 0 9 -5
9 -11z m116 -25 c6 9 15 16 19 16 4 0 2 -7 -5 -15 -10 -12 -10 -18 0 -30 8 -9
8 -15 2 -15 -6 0 -12 4 -14 8 -1 4 -18 18 -35 31 -18 12 -33 26 -33 31 0 5 12
-2 27 -16 24 -22 29 -23 39 -10z m-26 26 c0 -5 -2 -10 -4 -10 -3 0 -8 5 -11
10 -3 6 -1 10 4 10 6 0 11 -4 11 -10z m175 0 c3 -5 1 -10 -4 -10 -6 0 -11 5
-11 10 0 6 2 10 4 10 3 0 8 -4 11 -10z m-218 -51 c-6 -10 -15 -19 -18 -19 -13
0 -18 29 -7 36 7 4 8 3 4 -4 -4 -7 -3 -12 2 -12 17 0 22 13 9 29 -10 14 -10
14 5 3 14 -11 15 -17 5 -33z m128 22 c-16 -10 -32 -17 -34 -15 -7 7 33 33 49
34 8 0 2 -8 -15 -19z m67 -27 c-8 -15 -9 -15 -15 0 -4 10 -3 15 3 11 6 -3 10
2 11 12 0 10 3 13 5 6 3 -7 1 -20 -4 -29z m52 11 c9 -14 13 -25 9 -24 -20 3
-34 -2 -28 -11 4 -6 -1 -7 -11 -3 -12 4 -15 3 -10 -5 4 -7 2 -12 -3 -12 -16 0
-13 20 4 26 8 4 12 10 9 15 -3 5 2 6 10 3 20 -8 20 0 0 20 -8 9 -11 16 -6 16
5 0 17 -11 26 -25z m42 10 c18 -15 18 -15 0 -8 -15 5 -17 3 -11 -8 8 -12 6
-12 -8 0 -34 27 -16 43 19 16z m-432 -7 c-3 -5 -10 -6 -15 -3 -5 4 -9 1 -9 -6
0 -7 -3 -10 -6 -6 -9 9 3 24 20 24 8 0 13 -4 10 -9z m306 2 c0 -5 -4 -10 -10
-10 -5 0 -10 5 -10 10 0 6 5 10 10 10 6 0 10 -4 10 -10z m-123 -16 c-3 -3 -12
-4 -19 -1 -8 3 -5 6 6 6 11 1 17 -2 13 -5z m93 -5 c0 -5 6 -7 13 -3 8 5 8 2
-2 -9 -8 -10 -9 -17 -3 -17 6 0 16 8 21 18 6 9 11 14 11 9 0 -4 -5 -16 -12
-26 -11 -17 -14 -18 -35 -4 -22 15 -24 14 -38 -18 -9 -23 -14 -28 -15 -15 0
27 28 56 48 48 15 -5 15 -4 3 11 -9 11 -10 17 -2 17 6 0 11 -5 11 -11z m-300
-20 c0 -5 -7 -6 -15 -3 -11 5 -13 2 -8 -12 4 -11 3 -15 -5 -10 -18 11 -10 44
10 38 10 -2 18 -8 18 -13z m228 -25 c-8 -17 -8 -27 1 -38 9 -11 6 -18 -15 -35
-29 -23 -55 -14 -53 18 0 13 2 13 8 -2 9 -23 11 -23 39 -8 18 10 21 15 12 26
-7 9 -9 23 -4 37 4 13 7 30 6 38 -2 13 -1 13 7 1 6 -9 5 -22 -1 -37z m-18 24
c0 -3 -9 -6 -20 -5 -11 1 -20 5 -20 9 0 3 9 6 20 5 11 -1 20 -5 20 -9z m278
-7 c-7 -11 -16 -17 -20 -15 -11 7 -10 -13 1 -35 6 -11 6 -23 0 -32 -8 -12 -10
-12 -8 1 1 8 -1 28 -6 43 -6 25 -9 26 -24 14 -9 -8 -23 -17 -31 -21 -8 -4 -2
3 14 15 17 13 36 24 44 25 8 2 19 7 25 13 17 17 18 13 5 -8z m46 1 c2 -4 -5
-9 -17 -9 -17 -2 -19 0 -7 7 18 12 18 12 24 2z m-403 -15 c-12 -16 -5 -27 18
-27 14 0 14 2 1 10 -8 5 -10 10 -5 10 6 0 16 -4 24 -9 11 -7 9 -10 -8 -16 -12
-4 -28 -2 -36 5 -15 12 -10 40 7 40 7 0 6 -5 -1 -13z m223 -3 c3 -8 2 -12 -4
-9 -6 3 -10 1 -10 -6 0 -7 -2 -10 -5 -7 -5 5 4 38 10 38 2 0 6 -7 9 -16z
m-341 -7 c6 4 1 -8 -12 -25 -12 -18 -25 -32 -29 -32 -3 0 -1 5 6 12 17 17 15
33 -3 18 -21 -17 -19 -4 3 18 9 10 19 14 20 10 2 -5 9 -5 15 -1z m184 7 c-3
-3 -12 -4 -19 -1 -8 3 -5 6 6 6 11 1 17 -2 13 -5z m83 -14 c0 -11 -4 -20 -9
-20 -5 0 -7 9 -4 20 3 11 7 20 9 20 2 0 4 -9 4 -20z m-356 -5 c-4 -8 -11 -15
-16 -15 -6 0 -5 6 2 15 7 8 14 15 16 15 2 0 1 -7 -2 -15z m30 0 c-4 -8 -8 -15
-10 -15 -2 0 -4 7 -4 15 0 8 4 15 10 15 5 0 7 -7 4 -15z m146 5 c0 -5 -5 -10
-11 -10 -5 0 -7 5 -4 10 3 6 8 10 11 10 2 0 4 -4 4 -10z m398 -4 c-7 -8 -15
-12 -17 -11 -5 6 10 25 20 25 5 0 4 -6 -3 -14z m42 4 c0 -5 8 -10 17 -10 9 0
14 -3 10 -6 -8 -8 -47 5 -47 17 0 5 5 9 10 9 6 0 10 -4 10 -10z m-344 -19 c-4
-5 0 -12 6 -14 8 -3 6 -6 -4 -6 -18 -1 -24 10 -11 22 9 10 15 8 9 -2z m130 -8
c-2 -2 -7 -4 -10 -4 -3 1 -14 -3 -24 -8 -11 -6 -23 -6 -33 1 -12 8 -11 9 3 5
9 -3 24 0 34 8 17 12 43 10 30 -2z m58 1 c3 -8 2 -12 -4 -9 -6 3 -10 10 -10
16 0 14 7 11 14 -7z m51 6 c-3 -5 -1 -10 4 -10 6 0 11 -5 11 -11 0 -8 -4 -9
-13 0 -8 6 -17 8 -21 4 -4 -4 4 -13 16 -20 13 -7 18 -12 12 -13 -5 0 -19 6
-30 14 -19 15 -19 15 1 30 24 18 28 20 20 6z m85 -11 c0 -5 -8 -9 -17 -8 -11
0 -13 3 -5 6 6 2 9 10 6 15 -4 7 -2 8 4 4 7 -4 12 -11 12 -17z m-590 -1 c16 5
15 4 -14 -18 -13 -10 -17 -10 -12 -2 4 6 3 12 -3 12 -5 0 -11 -6 -14 -12 -3
-7 -4 -3 -4 9 1 16 5 19 17 14 8 -5 22 -6 30 -3z m190 2 c0 -5 -4 -10 -10 -10
-5 0 -10 5 -10 10 0 6 5 10 10 10 6 0 10 -4 10 -10z m-93 -7 c-15 -4 -16 -7
-6 -19 7 -9 8 -14 3 -13 -24 4 -45 -2 -39 -12 4 -6 14 -8 24 -4 12 5 13 3 4
-6 -9 -9 -17 -8 -34 4 l-22 16 26 6 c15 4 26 10 25 14 -2 16 3 21 20 20 16 -1
16 -2 -1 -6z m112 -19 c-6 -8 -15 -12 -18 -8 -3 4 0 9 7 11 6 3 9 10 6 15 -4
7 -2 8 5 4 9 -6 9 -11 0 -22z m398 4 c-3 -8 -6 -5 -6 6 -1 11 2 17 5 13 3 -3
4 -12 1 -19z m23 -9 c-11 -19 -10 -21 5 -16 9 4 19 7 21 7 3 0 2 5 -2 12 -4 7
-3 8 4 4 6 -4 9 -13 6 -20 -6 -15 -44 -16 -44 -1 0 18 12 47 17 42 2 -3 -1
-15 -7 -28z m-610 1 c-24 -15 -37 -11 -16 5 11 8 22 12 25 9 3 -3 -1 -9 -9
-14z m310 -1 c0 -5 5 -7 10 -4 6 3 10 2 10 -3 0 -6 -7 -13 -16 -16 -8 -3 -13
-10 -10 -15 3 -5 -2 -15 -12 -22 -15 -13 -16 -12 -3 4 9 11 10 17 2 17 -14 0
-31 -41 -23 -55 2 -5 -6 0 -19 12 -19 19 -21 25 -10 35 11 11 13 10 8 -4 -3
-10 -2 -20 3 -23 6 -4 10 1 10 9 0 9 11 23 25 32 20 13 23 19 14 30 -8 10 -8
14 0 14 6 0 11 -5 11 -11z m112 -6 c-6 -3 -10 -9 -6 -14 6 -10 -35 -73 -43
-65 -3 2 5 15 16 27 12 13 19 29 17 35 -5 13 15 37 23 27 3 -3 0 -8 -7 -10z
m128 7 c0 -5 8 -10 18 -10 10 0 3 -7 -17 -17 -19 -9 -36 -25 -39 -35 -4 -16
-7 -15 -24 7 -14 18 -26 24 -42 20 -11 -2 -16 -2 -9 1 7 3 9 13 6 22 -4 15 -3
15 6 2 6 -8 11 -11 11 -6 0 4 8 -2 18 -14 18 -22 19 -22 45 -5 22 14 25 20 16
31 -8 10 -8 14 0 14 6 0 11 -4 11 -10z m-160 -20 c0 -11 -4 -20 -9 -20 -5 0
-7 9 -4 20 3 11 7 20 9 20 2 0 4 -9 4 -20z m-244 -2 c-12 -7 -21 -7 -28 0 -6
6 0 10 18 10 23 0 24 -2 10 -10z m59 2 c-3 -5 -11 -10 -16 -10 -6 0 -7 5 -4
10 3 6 11 10 16 10 6 0 7 -4 4 -10z m75 0 c-8 -5 -19 -10 -25 -10 -5 0 -3 5 5
10 8 5 20 10 25 10 6 0 3 -5 -5 -10z m240 0 c-8 -5 -19 -10 -25 -10 -5 0 -3 5
5 10 8 5 20 10 25 10 6 0 3 -5 -5 -10z m-590 -45 c0 -5 -4 -4 -9 3 -6 10 -10
9 -14 -7 -5 -19 -8 -20 -31 -10 -20 10 -23 15 -15 26 6 7 17 13 23 13 6 0 4
-5 -4 -10 -13 -9 -13 -11 0 -20 12 -7 17 -3 24 16 6 20 11 23 17 13 5 -8 9
-18 9 -24z m189 19 c4 3 7 -4 7 -14 0 -10 -3 -17 -7 -14 -4 2 -9 -2 -12 -8 -4
-10 -7 -10 -18 0 -12 11 -12 13 1 10 11 -2 14 4 13 22 -1 14 1 19 3 12 3 -6 9
-10 13 -8z m56 6 c8 -13 -3 -50 -15 -50 -12 0 -23 37 -15 50 3 5 10 10 15 10
5 0 12 -5 15 -10z m55 6 c0 -2 -6 -9 -14 -15 -11 -9 -16 -9 -22 0 -4 8 -3 9 4
5 7 -4 12 -2 12 3 0 6 5 11 10 11 6 0 10 -2 10 -4z m360 -7 c0 -5 5 -7 12 -3
7 4 8 3 4 -4 -4 -7 -3 -12 3 -12 5 0 12 6 14 13 4 9 6 9 6 -1 1 -8 -8 -16 -19
-19 -11 -3 -20 -9 -20 -14 0 -5 -5 -9 -11 -9 -8 0 -8 5 1 15 10 12 10 18 0 30
-9 10 -9 15 -1 15 6 0 11 -5 11 -11z m-20 -20 c0 -6 -4 -7 -10 -4 -5 3 -10 11
-10 16 0 6 5 7 10 4 6 -3 10 -11 10 -16z m-603 5 c-3 -3 -12 -4 -19 -1 -8 3
-5 6 6 6 11 1 17 -2 13 -5z m34 -11 c13 -16 12 -17 -3 -4 -10 7 -18 15 -18 17
0 8 8 3 21 -13z m379 12 c0 -7 -30 -13 -34 -7 -3 4 4 9 15 9 10 1 19 0 19 -2z
m79 -5 c-6 -5 -19 -6 -27 -3 -12 5 -12 2 -3 -15 14 -26 14 -32 -1 -32 -6 0 -8
3 -5 7 4 3 2 12 -4 19 -15 18 -4 32 27 32 17 0 22 -3 13 -8z m85 -5 c3 -8 1
-15 -4 -15 -6 0 -10 7 -10 15 0 8 2 15 4 15 2 0 6 -7 10 -15z m-559 -15 c3 -5
0 -12 -6 -16 -7 -4 -9 -3 -5 4 4 7 -1 10 -14 9 -22 -1 -27 -13 -7 -20 9 -4 9
-6 0 -6 -14 -1 -26 16 -19 27 6 11 45 12 51 2z m245 -5 c15 -18 -3 -45 -29
-44 -11 0 -10 3 7 11 12 6 22 14 22 18 0 4 -10 12 -22 18 -17 8 -18 11 -7 11
9 1 22 -6 29 -14z m128 -6 l26 -20 -27 5 c-16 3 -27 0 -27 -6 0 -6 -3 -8 -6
-5 -4 4 -1 14 7 24 12 15 12 16 -4 10 -11 -4 -16 -3 -12 3 9 14 13 13 43 -11z
m122 11 c-20 -13 -33 -13 -25 0 3 6 14 10 23 10 15 0 15 -2 2 -10z m170 -1 c0
-5 -4 -8 -9 -4 -5 3 -12 1 -16 -5 -3 -5 -11 -10 -18 -10 -6 0 -2 7 9 15 23 17
34 19 34 4z m-802 -34 c-3 -3 -9 2 -12 12 -6 14 -5 15 5 6 7 -7 10 -15 7 -18z
m29 3 c-3 -8 -6 -5 -6 6 -1 11 2 17 5 13 3 -3 4 -12 1 -19z m53 -13 c0 -5 -5
-3 -10 5 -5 8 -10 20 -10 25 0 6 5 3 10 -5 5 -8 10 -19 10 -25z m90 25 c0 -5
-4 -10 -10 -10 -5 0 -10 5 -10 10 0 6 5 10 10 10 6 0 10 -4 10 -10z m117 3
c-4 -3 -2 -12 4 -20 13 -15 -4 -43 -28 -43 -8 0 -12 -4 -8 -10 3 -5 13 -6 23
-3 14 5 15 3 4 -8 -10 -11 -15 -10 -29 4 -15 15 -15 17 10 26 15 6 27 16 27
22 0 8 -5 7 -17 -2 -15 -11 -16 -11 -6 0 6 7 9 20 6 27 -3 8 1 14 8 14 7 0 9
-3 6 -7z m63 -3 c0 -5 -4 -10 -10 -10 -5 0 -10 5 -10 10 0 6 5 10 10 10 6 0
10 -4 10 -10z m205 -7 c-4 -10 -8 -23 -8 -30 0 -7 -4 -10 -9 -7 -4 3 -4 13 2
23 5 10 6 21 3 25 -3 3 -1 6 6 6 9 0 11 -6 6 -17z m160 6 c3 -4 -7 -5 -22 -3
-15 1 -30 -1 -33 -6 -3 -4 -10 -2 -17 5 -9 10 -4 12 27 11 21 0 41 -4 45 -7z
m-467 -23 c-8 -6 -15 -15 -16 -19 0 -5 -3 -11 -5 -14 -3 -3 -4 3 -3 13 2 10 8
20 14 22 7 2 9 9 6 14 -5 7 -2 8 6 3 10 -6 10 -10 -2 -19z m80 -25 c-4 -17
-28 -27 -28 -11 0 6 5 8 10 5 13 -8 13 11 -1 38 -10 21 -10 22 6 2 8 -11 14
-26 13 -34z m312 34 c0 -2 -9 -3 -19 -2 -11 0 -18 5 -15 9 4 6 34 0 34 -7z
m-665 -5 c-3 -5 -1 -10 6 -10 7 0 10 -3 6 -6 -9 -9 -28 6 -22 17 4 5 8 9 11 9
3 0 2 -4 -1 -10z m80 1 c9 -15 -29 -31 -46 -20 -12 8 -12 10 1 8 29 -3 41 1
35 11 -3 6 -4 10 -1 10 3 0 7 -4 11 -9z m95 -1 c13 -8 13 -10 -2 -10 -9 0 -20
5 -23 10 -8 13 5 13 25 0z m248 -10 c-7 -10 -14 -17 -17 -15 -4 4 18 35 25 35
2 0 -1 -9 -8 -20z m73 -2 c11 -11 19 -26 19 -31 0 -6 -1 -8 -2 -6 -2 2 -14 16
-27 32 -14 15 -21 27 -16 27 4 0 16 -10 26 -22z m-295 -10 c-2 -16 -10 -22
-23 -21 -13 1 -19 -4 -19 -17 0 -11 6 -20 13 -20 7 0 13 -5 13 -10 0 -7 -6 -7
-18 -1 -27 14 -22 57 7 54 11 -2 20 1 20 5 -2 14 1 32 6 32 3 0 3 -10 1 -22z
m341 16 c-3 -3 -12 -4 -19 -1 -8 3 -5 6 6 6 11 1 17 -2 13 -5z m-397 -14 c0
-5 -7 -7 -15 -4 -8 4 -15 8 -15 10 0 2 7 4 15 4 8 0 15 -4 15 -10z m778 -15
c-3 -3 -9 2 -12 12 -6 14 -5 15 5 6 7 -7 10 -15 7 -18z m-947 -8 c-10 -9 -11
-8 -5 6 3 10 9 15 12 12 3 -3 0 -11 -7 -18z m927 -2 c-3 -3 -9 2 -12 12 -6 14
-5 15 5 6 7 -7 10 -15 7 -18z m-798 -37 c0 -5 -4 -8 -10 -8 -5 0 -9 3 -8 8 3
15 -15 42 -25 35 -6 -4 -7 -1 -2 7 6 10 12 7 26 -11 10 -13 19 -27 19 -31z
m13 35 c-4 -11 -3 -14 5 -9 7 4 12 2 12 -3 0 -6 -4 -11 -9 -11 -14 0 -23 18
-16 30 10 16 15 12 8 -7z m277 7 c0 -5 -7 -7 -15 -4 -8 4 -15 8 -15 10 0 2 7
4 15 4 8 0 15 -4 15 -10z m94 2 c2 -4 -5 -9 -17 -9 -12 -1 -23 -7 -25 -13 -4
-12 -22 -14 -22 -2 0 5 10 14 23 20 28 13 35 14 41 4z m-438 -23 c3 -6 1 -16
-5 -22 -9 -9 -10 -7 -5 7 5 13 4 17 -4 12 -7 -4 -12 -2 -12 3 0 14 17 14 26 0z
m166 4 c-6 -2 -10 -9 -7 -14 4 -5 -1 -6 -10 -2 -13 5 -14 7 -3 14 7 5 18 8 23
8 6 0 4 -3 -3 -6z m158 -1 c0 -4 -10 -9 -22 -9 -18 -2 -20 0 -8 7 18 12 30 13
30 2z m554 0 c3 -5 -1 -9 -9 -9 -8 0 -12 4 -9 9 3 4 7 8 9 8 2 0 6 -4 9 -8z
m-927 -26 c5 -4 1 -6 -7 -4 -8 2 -14 -3 -12 -9 1 -7 -2 -13 -8 -13 -5 0 -10 7
-10 16 0 9 -5 12 -12 8 -6 -4 -8 -3 -5 3 7 11 43 11 54 -1z m338 -4 c-3 -3
-11 0 -18 7 -9 10 -8 11 6 5 10 -3 15 -9 12 -12z m-78 -14 c2 -17 0 -19 -7 -8
-5 8 -6 18 -4 22 8 12 10 10 11 -14z m657 -7 c-2 -3 -12 3 -22 13 -16 17 -16
18 5 5 12 -7 20 -15 17 -18z m26 19 c8 -5 12 -11 10 -14 -3 -2 -14 2 -24 10
-22 15 -10 19 14 4z m-1520 -4 c0 -3 -4 -8 -10 -11 -5 -3 -10 -1 -10 4 0 6 5
11 10 11 6 0 10 -2 10 -4z m650 -6 c0 -5 -2 -10 -4 -10 -3 0 -8 5 -11 10 -3 6
-1 10 4 10 6 0 11 -4 11 -10z m79 1 c10 -7 7 -9 -12 -8 -15 1 -27 5 -27 10 0
10 22 9 39 -2z m-916 -8 c-16 -6 -17 -24 -2 -20 6 1 14 -4 17 -12 3 -10 0 -12
-11 -8 -10 4 -20 -1 -26 -11 -8 -14 -10 -11 -8 13 2 30 13 45 32 44 6 0 4 -3
-2 -6z m867 -13 c0 -5 -4 -10 -10 -10 -5 0 -10 5 -10 10 0 6 5 10 10 10 6 0
10 -4 10 -10z m100 6 c0 -3 -4 -8 -10 -11 -5 -3 -10 -1 -10 4 0 6 5 11 10 11
6 0 10 -2 10 -4z m-490 -22 c0 -8 -5 -12 -10 -9 -6 4 -8 11 -5 16 9 14 15 11
15 -7z m288 -9 c-3 -3 -9 2 -12 12 -6 14 -5 15 5 6 7 -7 10 -15 7 -18z m175 5
c3 -11 1 -18 -4 -14 -5 3 -9 12 -9 20 0 20 7 17 13 -6z m770 7 c7 3 10 4 7 0
-3 -3 -8 -5 -12 -4 -4 1 -14 -7 -23 -18 -14 -19 -15 -18 -3 9 7 15 14 23 16
17 2 -6 9 -8 15 -4z m-702 -6 c-11 -7 -10 -11 5 -20 16 -9 16 -10 3 -11 -9 0
-19 6 -22 14 -6 16 1 26 17 26 6 0 5 -4 -3 -9z m42 -5 c4 -10 1 -13 -9 -9 -7
3 -14 9 -14 14 0 14 17 10 23 -5z m-783 -15 c0 -6 -4 -12 -8 -15 -5 -3 -9 1
-9 9 0 8 4 15 9 15 4 0 8 -4 8 -9z m554 -7 c3 -8 2 -12 -4 -9 -6 3 -10 10 -10
16 0 14 7 11 14 -7z m121 -6 c5 4 5 1 0 -7 -7 -12 -10 -12 -19 1 -6 8 -18 13
-26 11 -13 -4 -13 -3 0 6 11 8 18 7 26 -4 6 -8 15 -11 19 -7z m780 12 c-3 -5
0 -10 7 -11 10 0 10 -2 0 -6 -6 -2 -10 -9 -6 -14 3 -5 -2 -12 -10 -15 -9 -3
-13 -10 -10 -15 3 -5 -1 -12 -10 -15 -8 -3 -12 -12 -9 -19 8 -23 -6 -38 -23
-24 -8 6 -14 16 -14 22 0 6 7 2 16 -9 15 -18 15 -18 11 4 -4 15 0 25 9 29 8 3
11 9 8 14 -3 5 1 12 9 15 8 3 14 13 12 22 -2 18 2 32 11 32 3 0 2 -4 -1 -10z
m-1728 -22 c-3 -8 -6 -5 -6 6 -1 11 2 17 5 13 3 -3 4 -12 1 -19z m370 8 c0 -8
-6 -12 -15 -9 -11 5 -11 7 0 14 7 5 13 9 14 9 0 0 1 -6 1 -14z m627 -12 c3 -8
2 -12 -4 -9 -6 3 -10 10 -10 16 0 14 7 11 14 -7z m701 6 c-3 -5 -12 -10 -18
-10 -7 0 -6 4 3 10 19 12 23 12 15 0z m-1212 -13 c7 3 8 2 4 -2 -14 -16 -36
-14 -29 3 4 10 7 12 10 4 2 -7 9 -9 15 -5z m242 -6 c3 -5 2 -12 -3 -15 -5 -3
-9 1 -9 9 0 17 3 19 12 6z m-860 -11 c-3 -5 -12 -10 -18 -10 -7 0 -6 4 3 10
19 12 23 12 15 0z m-435 -30 c-5 -10 -7 -27 -4 -37 5 -17 5 -17 -6 -1 -7 12
-8 24 -1 37 6 10 7 22 3 26 -4 5 -1 5 6 1 8 -5 9 -13 2 -26z m1080 20 c0 -5
-2 -10 -4 -10 -3 0 -8 5 -11 10 -3 6 -1 10 4 10 6 0 11 -4 11 -10z m470 6 c0
-2 -7 -7 -16 -10 -8 -3 -12 -2 -9 4 6 10 25 14 25 6z m-1600 -16 c9 -6 17 -5
22 3 5 8 8 9 8 1 0 -6 -8 -18 -17 -25 -9 -8 -14 -9 -10 -3 4 7 1 14 -7 17 -17
7 -57 -3 -52 -12 2 -3 -2 -14 -9 -24 -10 -14 -14 -15 -18 -3 -6 14 16 39 43
49 22 8 23 8 40 -3z m-90 -15 c0 -1 -12 -2 -26 -2 -17 0 -22 2 -13 7 10 7 39
3 39 -5z m175 -7 c-9 -6 -19 -7 -22 -4 -4 3 -1 6 6 6 7 0 9 4 6 10 -4 6 1 7
11 3 15 -6 15 -7 -1 -15z m1345 18 c0 -3 -4 -8 -10 -11 -5 -3 -10 -1 -10 4 0
6 5 11 10 11 6 0 10 -2 10 -4z m70 0 c0 -2 -8 -10 -17 -17 -16 -13 -17 -12 -4
4 13 16 21 21 21 13z m867 -2 c-3 -3 -12 -4 -19 -1 -8 3 -5 6 6 6 11 1 17 -2
13 -5z m-2508 -23 c10 -7 7 -9 -12 -8 -15 1 -27 5 -27 10 0 10 22 9 39 -2z
m113 -7 c-12 -8 -20 -20 -17 -25 9 -13 25 -11 23 3 -3 14 40 20 48 7 3 -5 0
-17 -6 -26 -10 -16 -10 -16 -5 2 4 16 0 21 -15 22 -11 1 -18 -2 -15 -7 9 -15
-15 -22 -31 -9 -13 10 -12 14 2 30 10 11 22 19 28 19 6 0 0 -7 -12 -16z m1409
-1 c13 -16 12 -17 -3 -4 -17 13 -22 21 -14 21 2 0 10 -8 17 -17z m962 0 c-5
-12 -3 -14 7 -8 9 5 11 4 6 -4 -4 -6 -12 -9 -17 -6 -12 8 -12 35 1 35 5 0 6
-7 3 -17z m-2442 -10 c13 -16 12 -17 -3 -4 -10 7 -18 15 -18 17 0 8 8 3 21
-13z m-116 -13 c-3 -5 -1 -10 6 -10 7 0 10 -3 6 -6 -9 -9 -28 6 -22 17 4 5 8
9 11 9 3 0 2 -4 -1 -10z m348 -8 c-10 -7 -17 -16 -16 -20 1 -4 -1 -9 -4 -12
-4 -3 -2 1 2 9 6 11 4 13 -11 8 -18 -7 -18 -6 -2 6 10 8 16 16 13 18 -2 3 5 5
16 5 19 0 19 -1 2 -14z m2132 8 c-3 -5 2 -10 11 -10 10 0 15 -3 11 -6 -10 -10
-39 5 -32 16 3 5 8 10 11 10 3 0 2 -4 -1 -10z m-2460 -60 c20 0 38 -27 24 -36
-7 -4 -9 -3 -6 2 3 5 -7 17 -23 26 -24 14 -29 14 -34 2 -3 -8 -11 -14 -18 -13
-10 0 -10 2 0 6 6 2 12 9 12 14 0 6 -6 7 -12 3 -7 -4 -10 -4 -6 1 4 4 -2 16
-14 26 -11 11 -17 19 -13 19 5 0 19 -10 32 -22 13 -12 23 -16 23 -10 0 6 -4
14 -10 17 -5 3 -10 12 -10 18 0 7 10 -3 21 -20 12 -18 27 -33 34 -33z m275 50
c0 -5 -2 -10 -4 -10 -3 0 -8 5 -11 10 -3 6 -1 10 4 10 6 0 11 -4 11 -10z
m2255 0 c3 -5 2 -10 -4 -10 -5 0 -13 5 -16 10 -3 6 -2 10 4 10 5 0 13 -4 16
-10z m-2453 -15 c2 2 4 -4 5 -15 2 -18 1 -18 -18 1 -11 11 -25 17 -31 13 -7
-4 -8 -3 -4 4 5 8 13 9 25 2 10 -5 20 -7 23 -5z m-62 -5 c0 -5 -8 -10 -17 -10
-15 0 -16 2 -3 10 19 12 20 12 20 0z m227 -5 c0 -8 -4 -12 -9 -9 -4 3 -8 9 -8
15 0 5 4 9 8 9 5 0 9 -7 9 -15z m2249 0 c-24 -18 -33 -19 -42 -3 -4 7 -3 8 4
4 7 -4 20 -2 29 3 26 15 31 13 9 -4z m-2217 -11 c4 3 8 -1 8 -9 0 -8 -4 -15
-9 -15 -4 0 -8 2 -8 4 0 2 -2 10 -3 18 -2 7 -2 10 0 5 3 -4 8 -5 12 -3z m-369
-9 c0 -1 -12 -2 -26 -2 -17 0 -22 2 -13 7 10 7 39 3 39 -5z m156 4 c3 -6 1
-16 -6 -22 -10 -9 -12 -8 -6 7 5 14 2 17 -9 12 -8 -3 -15 -1 -15 4 0 14 27 13
36 -1z m79 1 c3 -5 1 -10 -4 -10 -6 0 -11 5 -11 10 0 6 2 10 4 10 3 0 8 -4 11
-10z m2395 -5 c0 -1 -12 -2 -26 -2 -17 0 -22 2 -13 7 10 7 39 3 39 -5z m-2613
-14 c0 -11 -4 -19 -8 -18 -4 1 -15 -7 -23 -18 -16 -20 -16 -20 -31 -1 -8 11
-15 25 -14 30 0 6 5 1 11 -11 6 -13 15 -23 20 -23 13 0 9 28 -4 34 -7 3 -3 3
10 0 15 -4 24 0 28 10 8 22 13 20 11 -3z m207 -17 c9 -24 7 -29 -15 -30 -23
-1 -34 17 -25 41 6 17 32 10 40 -11z m61 8 c-3 -3 -11 0 -18 7 -9 10 -8 11 6
5 10 -3 15 -9 12 -12z m-30 -2 c3 -5 1 -10 -4 -10 -6 0 -11 5 -11 10 0 6 2 10
4 10 3 0 8 -4 11 -10z m2323 -1 c-2 -6 -8 -11 -13 -11 -6 0 -15 -4 -22 -9 -7
-7 -14 -6 -19 2 -4 8 -3 9 4 5 7 -4 12 -2 12 4 0 7 7 10 15 6 8 -3 15 -1 15 4
0 6 3 10 6 10 3 0 4 -5 2 -11z m29 -11 c-3 -8 -6 -5 -6 6 -1 11 2 17 5 13 3
-3 4 -12 1 -19z m-2537 2 c-8 -5 -19 -10 -25 -10 -5 0 -3 5 5 10 8 5 20 10 25
10 6 0 3 -5 -5 -10z m95 0 c-3 -5 -3 -16 2 -22 9 -16 16 -54 7 -46 -3 3 -6 12
-8 20 -1 7 -5 19 -9 26 -8 11 -2 32 9 32 3 0 2 -4 -1 -10z m2475 -23 c0 -5 -4
-5 -10 -2 -5 3 -10 14 -10 23 0 15 2 15 10 2 5 -8 10 -19 10 -23z m-2711 3
c-8 -6 -6 -10 7 -13 19 -6 19 -6 0 -4 -11 1 -20 10 -22 19 -1 11 3 15 13 11
11 -4 12 -8 2 -13z m171 12 c0 -5 -12 -14 -27 -21 l-28 -11 24 20 c26 22 31
24 31 12z m-65 -12 c8 -13 -5 -13 -25 0 -13 8 -13 10 2 10 9 0 20 -4 23 -10z
m101 1 c-4 -5 0 -12 6 -15 7 -3 2 -3 -11 0 -16 4 -21 3 -17 -5 4 -6 2 -11 -3
-11 -17 0 -13 18 7 29 21 13 25 13 18 2z m139 -1 c3 -6 -1 -7 -9 -4 -18 7 -21
14 -7 14 6 0 13 -4 16 -10z m53 -15 c-3 -3 -9 2 -12 12 -6 14 -5 15 5 6 7 -7
10 -15 7 -18z m2272 -1 c0 -8 -4 -14 -10 -14 -5 0 -6 7 -3 17 5 12 3 14 -7 8
-9 -5 -11 -4 -6 4 9 14 26 5 26 -15z m-2580 -4 c8 -5 11 -10 5 -10 -5 0 -17 5
-25 10 -8 5 -10 10 -5 10 6 0 17 -5 25 -10z m287 -12 c-3 -8 -6 -5 -6 6 -1 11
2 17 5 13 3 -3 4 -12 1 -19z m2324 -11 c-5 -5 -17 -7 -27 -4 -15 4 -14 5 5 6
21 1 22 3 10 19 -13 15 -12 16 4 3 11 -9 14 -18 8 -24z m-2666 13 c-3 -5 -16
-15 -28 -21 -21 -10 -21 -9 2 10 25 23 36 27 26 11z m252 4 c-3 -3 -12 -4 -19
-1 -8 3 -5 6 6 6 11 1 17 -2 13 -5z m2294 -17 c-10 -9 -11 -8 -5 6 3 10 9 15
12 12 3 -3 0 -11 -7 -18z m-2603 -7 c-13 -20 -32 -23 -26 -5 2 6 6 9 11 8 4
-2 7 2 7 7 0 6 5 10 10 10 6 0 5 -8 -2 -20z m102 10 c13 -8 13 -10 -2 -10 -9
0 -20 5 -23 10 -8 13 5 13 25 0z m60 -11 c7 -11 9 -23 7 -26 -3 -2 -8 5 -12
16 -3 12 -11 21 -16 21 -14 0 -11 -27 4 -34 6 -3 2 -3 -10 0 -14 3 -25 -1 -32
-13 -9 -16 -10 -16 -8 4 0 12 4 20 9 17 4 -2 12 5 18 16 14 26 26 25 40 -1z
m87 -10 c-4 -14 0 -19 15 -19 10 0 17 4 13 9 -9 15 15 25 28 12 9 -9 8 -11 -6
-5 -12 4 -17 2 -15 -7 2 -9 -6 -14 -21 -14 -19 0 -24 6 -27 28 -2 17 1 25 8
21 5 -3 8 -15 5 -25z m87 25 c-7 -3 -10 -15 -8 -27 4 -21 4 -21 -5 -2 -10 23
-5 35 12 34 9 0 9 -2 1 -5z m2287 -17 c-10 -9 -11 -8 -5 6 3 10 9 15 12 12 3
-3 0 -11 -7 -18z m-2425 2 c4 -8 9 -7 15 2 7 11 9 10 9 -3 0 -10 -3 -18 -7
-18 -13 1 -48 30 -36 30 7 0 15 -5 19 -11z m2471 -3 c0 -8 -6 -12 -14 -9 -8 3
-13 0 -11 -8 2 -7 -5 -15 -14 -17 -10 -2 -18 1 -18 7 0 6 7 7 17 4 10 -4 14
-2 9 5 -5 8 10 25 30 32 0 0 1 -6 1 -14z m-2598 0 c-14 -12 -90 -45 -84 -36 3
6 21 17 38 24 31 14 55 20 46 12z m-109 -45 c-5 -10 -7 -20 -5 -23 3 -3 -2 -5
-10 -5 -10 0 -12 4 -4 13 5 6 9 16 8 20 -3 18 1 25 11 19 7 -4 7 -12 0 -24z
m113 22 c-7 -2 -13 -9 -13 -14 0 -6 5 -7 12 -3 7 4 8 3 4 -4 -4 -7 -2 -12 5
-12 7 0 9 -3 6 -6 -4 -4 -13 -2 -21 5 -11 9 -15 9 -18 -1 -3 -8 -7 -6 -11 6
-4 9 -3 15 2 12 5 -3 11 1 15 9 3 8 11 15 18 14 10 0 10 -2 1 -6z m119 -45
c-8 -8 -9 -5 -5 13 l6 24 -21 -25 c-12 -14 -21 -19 -22 -12 0 6 4 12 9 12 5 0
13 10 17 23 l7 22 10 -23 c7 -16 7 -26 -1 -34z m2510 44 c-13 -4 -23 -11 -22
-17 0 -5 -12 -11 -27 -12 -19 -2 -24 0 -14 6 8 5 20 7 28 4 8 -3 13 -2 12 3
-3 19 2 24 24 23 l22 -1 -23 -6z m-2569 -26 c4 -10 1 -13 -9 -9 -15 6 -19 23
-5 23 5 0 11 -7 14 -14z m217 8 c0 -8 -19 -13 -24 -6 -3 5 1 9 9 9 8 0 15 -2
15 -3z m46 -6 c4 -7 3 -8 -5 -4 -6 4 -20 2 -29 -6 -15 -12 -16 -11 -3 5 16 20
27 22 37 5z m2200 -3 c4 -8 10 -12 15 -9 15 9 22 -23 10 -43 -9 -15 -10 -13
-5 11 5 21 4 27 -5 22 -6 -4 -14 0 -17 8 -3 9 -10 13 -15 10 -5 -3 -9 0 -9 5
0 16 20 13 26 -4z m-2571 -5 c3 -6 -1 -7 -9 -4 -18 7 -21 14 -7 14 6 0 13 -4
16 -10z m226 -17 c7 -10 9 -15 5 -11 -5 4 -16 2 -25 -5 -14 -11 -15 -10 -1 7
14 18 13 19 -2 13 -10 -3 -18 -2 -18 3 0 16 27 11 41 -7z m49 13 c0 -2 -7 -7
-16 -10 -8 -3 -12 -2 -9 4 6 10 25 14 25 6z m2410 0 c0 -3 -4 -8 -10 -11 -5
-3 -10 -1 -10 4 0 6 5 11 10 11 6 0 10 -2 10 -4z m-30 -22 c0 -2 -7 -4 -15 -4
-8 0 -15 4 -15 10 0 5 7 7 15 4 8 -4 15 -8 15 -10z m-2375 -4 c3 -5 1 -10 -4
-10 -6 0 -11 5 -11 10 0 6 2 10 4 10 3 0 8 -4 11 -10z m2290 0 c3 -5 1 -10 -4
-10 -6 0 -11 5 -11 10 0 6 2 10 4 10 3 0 8 -4 11 -10z m98 -21 c-8 -8 -13 -7
-18 2 -5 8 -4 10 3 5 7 -4 12 -2 12 5 0 7 3 9 7 6 4 -4 2 -12 -4 -18z m-2703
-1 c0 -4 -6 -8 -14 -8 -8 0 -17 4 -20 8 -2 4 4 8 15 8 10 0 19 -4 19 -8z m40
1 c0 -5 -3 -8 -7 -6 -11 6 -43 -30 -35 -39 4 -4 -5 1 -20 11 -32 20 -38 31 -8
15 16 -8 23 -7 37 10 19 22 33 26 33 9z m77 4 c-7 -11 19 -33 29 -25 5 4 2 -1
-5 -10 -7 -10 -19 -18 -25 -18 -6 0 -5 4 3 9 9 6 10 11 2 15 -6 4 -14 0 -17
-8 -3 -9 -11 -16 -16 -16 -6 0 -5 6 2 15 15 18 -1 20 -18 3 -8 -8 -9 -15 -1
-25 7 -7 7 -13 3 -13 -14 0 -35 39 -28 51 3 6 12 8 19 5 7 -2 21 2 32 9 21 16
26 18 20 8z m38 -11 c-3 -3 -11 0 -18 7 -9 10 -8 11 6 5 10 -3 15 -9 12 -12z
m220 8 c3 -5 1 -10 -4 -10 -6 0 -11 5 -11 10 0 6 2 10 4 10 3 0 8 -4 11 -10z
m2240 -30 c-3 -5 2 -11 10 -13 11 -3 10 -4 -2 -3 -10 1 -17 7 -16 12 1 6 -7
16 -18 22 -17 11 -20 10 -17 -5 2 -10 9 -23 17 -29 15 -12 7 -34 -12 -34 -7 0
-6 4 3 10 13 9 13 11 1 19 -15 10 -23 39 -15 53 3 4 16 1 29 -8 14 -9 23 -20
20 -24z m79 1 c-2 -2 -14 4 -26 15 -19 17 -21 17 -15 2 4 -10 2 -18 -3 -18
-11 0 -14 23 -4 33 7 7 55 -25 48 -32z m-2735 -31 c0 -9 -6 -4 -14 10 -19 33
-19 49 0 24 8 -10 14 -26 14 -34z m266 30 c-2 -8 -4 -17 -4 -19 -1 -2 -10 4
-20 13 -11 10 -22 13 -25 8 -3 -6 1 -12 9 -16 17 -6 20 -26 4 -26 -5 0 -8 4
-5 9 3 5 -1 11 -9 15 -24 9 -6 34 24 32 20 0 28 -5 26 -16z m2309 -21 c-9 -10
-22 -19 -28 -19 -6 0 -4 5 4 10 8 5 16 14 16 20 3 20 4 21 15 15 7 -5 4 -14
-7 -26z m-2478 -53 c-2 -6 -5 -2 -5 8 -1 26 -14 12 -17 -19 -2 -22 0 -24 16
-15 20 11 50 4 50 -12 0 -5 -4 -7 -9 -4 -5 3 -14 -1 -21 -9 -7 -8 -18 -15 -24
-15 -6 0 0 10 14 21 20 17 21 20 5 14 -11 -4 -29 -8 -40 -9 -11 0 -24 -5 -28
-11 -5 -6 -7 -5 -5 3 2 8 7 13 12 12 5 -1 13 4 17 12 16 25 9 30 -17 13 -15
-9 -24 -13 -20 -7 3 5 -1 12 -9 16 -8 3 -15 11 -14 18 0 10 2 10 6 1 2 -7 9
-13 14 -13 6 0 7 5 3 12 -4 7 -3 8 4 4 7 -4 12 -2 12 3 0 6 5 11 11 11 8 0 8
-5 -1 -15 -14 -17 0 -21 17 -4 13 13 6 42 -8 33 -5 -3 -6 2 -3 11 5 13 11 10
26 -15 10 -18 17 -37 14 -44z m215 56 c-7 -2 -18 1 -23 6 -8 8 -4 9 13 5 13
-4 18 -8 10 -11z m2409 -2 c0 -5 -7 -7 -15 -4 -8 4 -15 8 -15 10 0 2 7 4 15 4
8 0 15 -4 15 -10z m-2695 -10 c3 -5 1 -10 -4 -10 -6 0 -11 5 -11 10 0 6 2 10
4 10 3 0 8 -4 11 -10z m165 0 c-8 -5 -19 -10 -25 -10 -5 0 -3 5 5 10 8 5 20
10 25 10 6 0 3 -5 -5 -10z m2397 -15 c-10 -7 -18 -17 -17 -22 0 -4 -10 -9 -22
-10 l-23 -2 23 7 c13 4 23 10 22 15 -1 11 24 36 30 30 3 -2 -3 -11 -13 -18z
m81 1 c-10 -7 -15 -15 -13 -18 3 -3 -5 -12 -19 -21 -13 -9 -26 -13 -30 -10
-10 10 -7 33 4 33 5 0 7 -7 3 -16 -5 -14 -3 -14 15 -3 11 7 19 16 16 20 -2 4
4 12 13 18 25 15 31 13 11 -3z m-2458 -11 c-1 -5 7 -13 17 -17 16 -7 16 -8 -2
-5 -11 2 -19 9 -17 15 4 22 -15 12 -26 -13 -11 -24 -42 -26 -42 -3 0 6 6 5 15
-2 10 -8 15 -9 15 -2 0 6 -8 16 -17 21 -10 6 -13 11 -6 11 6 0 15 -5 19 -11 5
-8 10 -6 16 5 10 17 31 18 28 1z m63 8 c-15 -3 -20 -9 -17 -21 5 -14 4 -14 -4
-2 -14 19 -6 30 21 29 l22 -2 -22 -4z m2432 -1 c-15 -11 -19 -46 -4 -36 8 4
10 3 5 -5 -16 -26 -28 7 -17 47 1 1 7 2 14 2 7 0 8 -3 2 -8z m-2578 -24 c-3
-8 -6 -5 -6 6 -1 11 2 17 5 13 3 -3 4 -12 1 -19z m-140 6 c-3 -4 1 -13 9 -21
8 -8 12 -19 9 -24 -4 -5 -1 -9 4 -9 6 0 11 -5 11 -10 0 -6 -8 -5 -20 2 -11 7
-16 14 -10 16 5 2 3 10 -5 19 -14 13 -12 33 2 33 4 0 4 -3 0 -6z m204 -37
c-10 -9 -11 -8 -5 6 3 10 9 15 12 12 3 -3 0 -11 -7 -18z m2329 13 c0 -5 -5
-10 -11 -10 -5 0 -7 5 -4 10 3 6 8 10 11 10 2 0 4 -4 4 -10z m74 -6 c3 -8 2
-12 -4 -9 -6 3 -10 10 -10 16 0 14 7 11 14 -7z m86 -9 c14 -19 14 -19 -2 -6
-10 7 -18 18 -18 24 0 6 1 8 3 6 1 -2 9 -13 17 -24z m-108 -13 c-3 -15 29 -12
41 3 5 6 7 4 4 -5 -4 -16 -41 -21 -44 -5 -1 6 -12 13 -25 17 -22 7 -22 7 2 5
14 -1 24 -8 22 -15z m78 2 c0 -8 5 -12 10 -9 6 3 10 4 10 1 0 -16 -21 -13 -30
4 -7 13 -7 20 0 20 5 0 10 -7 10 -16z m-2650 -35 c0 -5 -4 -9 -8 -9 -5 0 -9 7
-9 15 0 8 4 12 9 9 4 -3 8 -9 8 -15z m2478 -7 c-7 -10 -14 -19 -15 -21 -3 -4
2 28 6 47 1 2 6 0 11 -3 8 -5 7 -12 -2 -23z m-2418 1 c0 -3 -6 -3 -14 0 -7 3
-20 -3 -29 -14 -9 -10 -22 -19 -27 -19 -6 0 1 11 17 24 23 20 53 25 53 9z
m2519 2 c3 -3 -7 -4 -23 -1 -16 3 -31 8 -35 11 -3 3 7 4 23 1 16 -3 31 -8 35
-11z m69 -6 c3 -11 2 -11 -7 1 -9 13 -12 12 -26 -5 -16 -19 -16 -19 -5 3 12
25 31 25 38 1z m-113 -29 c0 -19 -5 -25 -24 -25 -16 0 -25 6 -27 19 -4 27 2
33 28 32 17 -1 23 -7 23 -26z m35 -15 c0 -5 -5 -3 -10 5 -5 8 -10 20 -10 25 0
6 5 3 10 -5 5 -8 10 -19 10 -25z m-110 15 c8 -5 11 -10 5 -10 -5 0 -17 5 -25
10 -8 5 -10 10 -5 10 6 0 17 -5 25 -10z m174 -5 c-4 -8 -8 -15 -10 -15 -2 0
-4 7 -4 15 0 8 4 15 10 15 5 0 7 -7 4 -15z m-196 -30 c1 -14 -2 -25 -6 -25 -4
0 -8 11 -8 25 -2 33 11 33 14 0z m172 9 c0 -2 -7 -4 -15 -4 -8 0 -15 4 -15 10
0 5 7 7 15 4 8 -4 15 -8 15 -10z m-110 -21 c0 -3 -7 -2 -16 1 -12 5 -14 1 -9
-17 5 -19 4 -20 -5 -4 -13 21 -5 38 15 30 8 -3 15 -7 15 -10z m70 -3 c6 -11 9
-20 8 -20 -2 0 -11 9 -21 20 -9 11 -13 20 -7 20 5 0 14 -9 20 -20z m-190 -4
c0 -3 -4 -8 -10 -11 -5 -3 -10 -1 -10 4 0 6 5 11 10 11 6 0 10 -2 10 -4z m174
-12 c3 -8 2 -12 -4 -9 -6 3 -10 10 -10 16 0 14 7 11 14 -7z m-16 -26 c-5 -14
-45 -21 -53 -9 -3 5 0 13 6 17 7 4 9 3 5 -4 -4 -7 1 -10 14 -9 25 2 25 6 3 24
-16 13 -16 13 5 3 13 -6 22 -16 20 -22z m-144 6 c3 -8 2 -12 -4 -9 -6 3 -10
10 -10 16 0 14 7 11 14 -7z m50 1 c-10 -8 -23 -15 -28 -15 -6 0 -1 7 10 15 10
8 23 15 28 15 6 0 1 -7 -10 -15z m-84 -20 c-5 -7 -9 -14 -7 -16 1 -2 0 -3 -2
-1 -11 7 -7 29 5 29 9 0 11 -4 4 -12z m102 8 c-6 -2 -10 -9 -7 -13 3 -5 1 -11
-4 -14 -7 -5 -8 11 -2 32 1 1 7 2 14 1 9 0 9 -2 -1 -6z m-2477 -21 c-3 -3 -11
0 -18 7 -9 10 -8 11 6 5 10 -3 15 -9 12 -12z m2349 -8 c3 -8 2 -12 -4 -9 -6 3
-10 10 -10 16 0 14 7 11 14 -7z m91 6 c3 -6 -1 -7 -9 -4 -18 7 -21 14 -7 14 6
0 13 -4 16 -10z m70 -8 c-3 -3 -11 0 -18 7 -9 10 -8 11 6 5 10 -3 15 -9 12
-12z m-2540 -2 c3 -5 1 -10 -4 -10 -6 0 -11 5 -11 10 0 6 2 10 4 10 3 0 8 -4
11 -10z m2520 -10 c3 -5 1 -10 -4 -10 -6 0 -11 5 -11 10 0 6 2 10 4 10 3 0 8
-4 11 -10z m-62 -21 c-8 -8 -13 -7 -18 2 -5 8 -4 10 3 5 7 -4 12 -2 12 5 0 7
3 9 7 6 4 -4 2 -12 -4 -18z m34 -1 c-3 -8 -6 -5 -6 6 -1 11 2 17 5 13 3 -3 4
-12 1 -19z m-2507 0 c0 -6 -3 -8 -7 -5 -3 4 -12 2 -20 -5 -7 -6 -16 -8 -20 -4
-3 3 -1 6 6 6 7 0 10 4 7 8 -2 4 4 9 15 9 10 1 19 -3 19 -9z m40 2 c0 -5 -4
-10 -10 -10 -5 0 -10 5 -10 10 0 6 5 10 10 10 6 0 10 -4 10 -10z m40 -2 c0 -4
-4 -8 -9 -8 -6 0 -12 4 -15 8 -3 5 1 9 9 9 8 0 15 -4 15 -9z m2355 -8 c4 -6
-1 -7 -11 -3 -13 5 -15 3 -9 -7 5 -9 4 -11 -4 -6 -6 4 -9 12 -6 17 8 12 22 12
30 -1z m-2370 -32 c5 -4 0 -6 -12 -6 -13 1 -19 7 -16 15 3 8 8 10 12 6 3 -4
10 -11 16 -15z m-105 8 c0 -3 -4 -8 -10 -11 -5 -3 -10 -1 -10 4 0 6 5 11 10
11 6 0 10 -2 10 -4z m150 -16 c6 -11 8 -20 6 -20 -3 0 -10 9 -16 20 -6 11 -8
20 -6 20 3 0 10 -9 16 -20z m-120 6 c0 -2 -7 -7 -16 -10 -8 -3 -12 -2 -9 4 6
10 25 14 25 6z m28 -31 c0 -30 -7 -28 -13 4 -2 11 0 21 4 21 5 0 9 -11 9 -25z
m80 4 c10 -13 10 -18 0 -22 -8 -3 -14 5 -14 20 -1 13 -1 23 0 21 1 -2 7 -10
14 -19z m-123 -9 c3 -5 2 -10 -4 -10 -5 0 -13 5 -16 10 -3 6 -2 10 4 10 5 0
13 -4 16 -10z m80 -1 c11 -16 1 -19 -13 -3 -7 8 -8 14 -3 14 5 0 13 -5 16 -11z
m-60 -19 c-3 -5 -1 -10 6 -10 7 0 10 -3 6 -6 -9 -9 -28 6 -22 17 4 5 8 9 11 9
3 0 2 -4 -1 -10z m143 3 c-3 -19 15 -41 32 -38 13 3 16 -1 13 -16 -3 -10 -9
-19 -14 -19 -5 0 -5 7 -2 17 4 10 2 14 -4 10 -6 -4 -18 4 -27 18 -19 28 -20
35 -6 35 6 0 9 -3 8 -7z m-80 -31 c23 -17 23 -19 5 -32 -15 -12 -16 -12 -6 0
10 11 8 17 -15 32 -15 10 -22 18 -17 18 6 0 20 -9 33 -18z m41 8 c-6 -5 -18
-6 -26 -3 -19 8 -16 11 13 11 17 0 22 -3 13 -8z m-79 -20 c-8 -5 -17 -7 -21
-4 -4 2 -7 -5 -6 -16 1 -12 6 -19 14 -16 7 3 13 1 13 -5 0 -19 -33 -5 -36 15
-4 26 0 31 28 33 17 2 19 0 8 -7z m113 -3 c3 -8 2 -20 -3 -26 -5 -9 -7 -4 -7
13 0 29 2 32 10 13z m-93 -22 c0 -8 -2 -15 -4 -15 -2 0 -6 7 -10 15 -3 8 -1
15 4 15 6 0 10 -7 10 -15z m64 0 c-4 -8 -8 -15 -10 -15 -2 0 -4 7 -4 15 0 8 4
15 10 15 5 0 7 -7 4 -15z m51 -35 c-3 -14 2 -20 15 -20 13 0 17 5 13 19 -6 22
12 37 23 20 5 -8 3 -9 -5 -4 -9 5 -12 0 -9 -16 2 -20 -1 -24 -22 -24 -16 0
-24 5 -22 14 2 8 -3 11 -11 8 -8 -3 -20 -1 -28 4 -12 8 -12 10 1 8 30 -3 41 1
34 13 -4 6 -3 8 4 4 6 -3 9 -15 7 -26z m-98 5 c0 -8 -4 -12 -8 -9 -4 2 -9 -1
-11 -8 -6 -16 -35 -18 -35 -2 0 9 4 10 12 4 7 -6 15 -2 23 11 15 23 19 24 19
4z m186 -12 c-3 -7 -6 -13 -8 -13 -2 0 -5 6 -8 13 -3 8 1 14 8 14 7 0 11 -6 8
-14z m-131 -13 c1 -3 -3 -14 -10 -25 -6 -11 -12 -15 -12 -9 0 5 6 16 13 23 10
10 8 12 -8 9 -22 -3 -46 -28 -39 -40 3 -5 1 -8 -5 -8 -5 0 -9 9 -8 19 0 11 4
18 8 15 4 -2 9 2 12 10 5 12 45 17 49 6z m99 -17 c-12 -20 -14 -14 -5 12 4 9
9 14 11 11 3 -2 0 -13 -6 -23z m-79 -15 c-7 -7 -12 -8 -12 -2 0 14 12 26 19
19 2 -3 -1 -11 -7 -17z m108 12 c0 -5 -5 -10 -11 -10 -5 0 -7 5 -4 10 3 6 8
10 11 10 2 0 4 -4 4 -10z m57 -7 c0 -9 -4 -10 -14 -2 -7 6 -13 12 -13 14 0 1
6 2 13 2 8 0 14 -6 14 -14z m-105 -17 c-2 -5 2 -13 10 -18 10 -8 10 -9 -2 -5
-8 2 -14 10 -12 16 1 6 -7 11 -17 11 -14 0 -19 -6 -16 -20 2 -11 -1 -23 -7
-26 -7 -4 -8 -2 -4 4 4 7 1 12 -6 12 -9 0 -9 3 2 10 8 5 11 10 7 10 -5 0 -5 5
-2 11 8 12 51 8 47 -5z m83 -5 c-6 -5 -21 -11 -35 -15 -21 -5 -20 -3 5 9 35
17 42 18 30 6z m-155 -11 c0 -5 -4 -10 -10 -10 -5 0 -10 5 -10 10 0 6 5 10 10
10 6 0 10 -4 10 -10z m245 1 c-9 -8 -36 -10 -30 -2 2 4 11 8 20 8 8 0 13 -3
10 -6z m-285 -21 c0 -5 -5 -10 -11 -10 -5 0 -7 5 -4 10 3 6 8 10 11 10 2 0 4
-4 4 -10z m96 -5 c-3 -8 0 -15 6 -15 6 0 9 -3 5 -6 -10 -11 -26 6 -20 21 3 8
7 15 10 15 3 0 3 -7 -1 -15z m124 5 c0 -5 -4 -10 -10 -10 -5 0 -10 5 -10 10 0
6 5 10 10 10 6 0 10 -4 10 -10z m100 4 c0 -8 -19 -13 -24 -6 -3 5 1 9 9 9 8 0
15 -2 15 -3z m-290 -39 c0 -5 -5 -3 -10 5 -5 8 -10 20 -10 25 0 6 5 3 10 -5 5
-8 10 -19 10 -25z m106 -6 c-2 -22 -6 -43 -9 -46 -3 -3 -4 10 -2 29 2 18 4 39
4 46 1 6 3 12 6 12 3 0 3 -18 1 -41z m45 26 c5 4 6 -1 2 -10 -5 -13 -7 -14
-14 -3 -5 7 -8 18 -8 23 0 6 3 4 6 -3 2 -6 9 -10 14 -7z m90 -18 c-10 -9 -11
-8 -5 6 3 10 9 15 12 12 3 -3 0 -11 -7 -18z m-206 -14 c-11 -7 -24 -13 -29
-12 -6 0 -5 3 2 6 6 2 10 9 7 14 -4 5 2 6 11 2 13 -5 15 -3 9 7 -6 9 -4 11 5
5 10 -6 9 -11 -5 -22z m170 -3 c-3 -5 -14 -10 -23 -9 -14 0 -13 2 3 9 27 11
27 11 20 0z m-125 -16 c0 -2 -7 -4 -15 -4 -8 0 -15 4 -15 10 0 5 7 7 15 4 8
-4 15 -8 15 -10z m74 4 c-3 -4 -11 -5 -19 -1 -21 7 -19 12 4 10 11 0 18 -5 15
-9z m-109 -18 c3 -6 -1 -7 -9 -4 -18 7 -21 14 -7 14 6 0 13 -4 16 -10z m91 -2
c4 -6 3 -8 -3 -5 -6 4 -13 0 -17 -8 -3 -8 -10 -15 -16 -15 -5 0 -2 9 7 20 20
23 20 23 29 8z m39 4 c-6 -4 -11 -16 -10 -27 0 -13 -7 -20 -20 -20 -11 0 -24
-4 -28 -10 -5 -6 -7 -4 -4 5 2 9 13 14 25 12 15 -2 20 2 17 15 -3 22 3 33 18
33 8 0 8 -3 2 -8z m95 4 c0 -2 -7 -7 -16 -10 -8 -3 -12 -2 -9 4 6 10 25 14 25
6z m-49 -33 c13 -17 13 -17 -6 -3 -11 8 -22 16 -24 17 -2 2 0 3 6 3 6 0 17 -8
24 -17z m-15 -15 c4 -7 4 -10 -1 -6 -4 4 -14 1 -22 -7 -8 -8 -19 -15 -25 -15
-6 0 0 9 13 20 29 23 26 23 35 8z m54 -23 c0 -2 -6 -5 -13 -8 -8 -3 -14 1 -14
8 0 7 6 11 14 8 7 -3 13 -6 13 -8z m-30 -40 c0 -5 -5 -3 -10 5 -5 8 -10 20
-10 25 0 6 5 3 10 -5 5 -8 10 -19 10 -25z m-20 -1 c0 -2 -9 0 -20 6 -11 6 -20
13 -20 16 0 2 9 0 20 -6 11 -6 20 -13 20 -16z m67 -10 c-3 -3 -12 -4 -19 -1
-8 3 -5 6 6 6 11 1 17 -2 13 -5z m33 -9 c-5 -7 -9 -14 -7 -16 1 -2 0 -3 -2 -1
-11 7 -7 29 5 29 9 0 11 -4 4 -12z"/>
<path d="M3270 3765 c0 -8 5 -15 10 -15 6 0 10 7 10 15 0 8 -4 15 -10 15 -5 0
-10 -7 -10 -15z"/>
<path d="M1460 3322 c0 -11 8 -18 21 -19 20 -2 20 -1 4 18 -22 24 -25 24 -25
1z"/>
<path d="M1220 3109 c0 -5 5 -7 10 -4 6 3 10 8 10 11 0 2 -4 4 -10 4 -5 0 -10
-5 -10 -11z"/>
<path d="M3623 2919 c1 -10 9 -17 18 -16 10 1 17 9 16 18 -1 10 -9 17 -18 16
-10 -1 -17 -9 -16 -18z"/>
<path d="M2196 3678 c3 -5 10 -6 15 -3 13 9 11 12 -6 12 -8 0 -12 -4 -9 -9z"/>
<path d="M2413 3675 c0 -8 4 -12 9 -9 5 3 6 10 3 15 -9 13 -12 11 -12 -6z"/>
<path d="M2270 3676 c0 -2 8 -10 18 -17 15 -13 16 -12 3 4 -13 16 -21 21 -21
13z"/>
<path d="M2313 3655 c0 -8 4 -12 9 -9 5 3 6 10 3 15 -9 13 -12 11 -12 -6z"/>
<path d="M2490 3660 c0 -5 5 -10 11 -10 5 0 7 5 4 10 -3 6 -8 10 -11 10 -2 0
-4 -4 -4 -10z"/>
<path d="M2580 3660 c-9 -6 -10 -10 -3 -10 6 0 15 5 18 10 8 12 4 12 -15 0z"/>
<path d="M2200 3640 c18 -12 30 -13 30 -2 0 4 -10 9 -22 9 -18 2 -20 0 -8 -7z"/>
<path d="M2256 3635 c4 -8 8 -15 10 -15 2 0 4 7 4 15 0 8 -4 15 -10 15 -5 0
-7 -7 -4 -15z"/>
<path d="M2395 3640 c-13 -6 -15 -9 -5 -9 8 0 22 4 30 9 18 12 2 12 -25 0z"/>
<path d="M2428 3623 c17 -7 15 -20 -3 -20 -8 0 -15 4 -15 9 0 4 -4 8 -8 8 -14
0 -8 -53 6 -58 8 -2 10 2 5 14 -4 10 -2 15 3 11 6 -3 16 -2 23 3 16 9 7 40
-11 39 -10 0 -10 -2 0 -6z"/>
<path d="M2690 3620 c0 -5 5 -10 11 -10 5 0 7 5 4 10 -3 6 -8 10 -11 10 -2 0
-4 -4 -4 -10z"/>
<path d="M2799 3613 c-13 -16 -12 -17 4 -4 16 13 21 21 13 21 -2 0 -10 -8 -17
-17z"/>
<path d="M2055 3610 c-4 -6 -11 -7 -17 -4 -7 4 -8 2 -4 -4 10 -16 23 -15 30 3
6 17 0 20 -9 5z"/>
<path d="M2466 3605 c-6 -16 28 -40 44 -30 6 3 7 -1 4 -9 -3 -9 -2 -16 3 -16
5 0 9 9 10 20 1 12 -4 20 -13 20 -8 0 -13 4 -10 9 3 5 -1 12 -10 15 -21 8 -21
8 -28 -9z m27 -9 c4 -10 1 -13 -8 -9 -8 3 -12 9 -9 14 7 12 11 11 17 -5z"/>
<path d="M2275 3600 c3 -5 8 -10 11 -10 2 0 4 5 4 10 0 6 -5 10 -11 10 -5 0
-7 -4 -4 -10z"/>
<path d="M2630 3599 c0 -5 5 -7 10 -4 6 3 10 8 10 11 0 2 -4 4 -10 4 -5 0 -10
-5 -10 -11z"/>
<path d="M1970 3585 c0 -7 30 -13 34 -7 3 4 -4 9 -15 9 -10 1 -19 0 -19 -2z"/>
<path d="M2795 3570 c-4 -6 -11 -8 -16 -5 -5 4 -9 2 -9 -4 0 -5 8 -9 18 -8 10
0 19 7 19 14 0 16 -4 16 -12 3z"/>
<path d="M1836 3558 c3 -5 10 -6 15 -3 13 9 11 12 -6 12 -8 0 -12 -4 -9 -9z"/>
<path d="M1965 3560 c-3 -5 -1 -10 4 -10 6 0 11 5 11 10 0 6 -2 10 -4 10 -3 0
-8 -4 -11 -10z"/>
<path d="M2690 3551 c-13 -25 15 -58 34 -41 7 5 16 7 19 3 4 -3 7 -1 7 5 0 7
5 12 11 12 5 0 8 -4 4 -9 -3 -5 -1 -13 5 -16 8 -5 7 -11 -1 -21 -6 -8 -10 -17
-7 -19 2 -3 17 14 32 38 19 28 22 36 9 24 -23 -20 -40 -23 -24 -4 9 11 5 14
-22 13 -18 -1 -37 -5 -42 -8 -6 -4 -11 2 -11 13 0 16 5 19 23 14 13 -3 23 -2
23 3 0 17 -50 11 -60 -7z"/>
<path d="M1873 3533 c0 -9 4 -10 14 -2 7 6 13 12 13 14 0 1 -6 2 -13 2 -8 0
-14 -6 -14 -14z"/>
<path d="M2057 3524 c3 -7 9 -14 14 -14 14 0 10 17 -5 23 -10 4 -13 1 -9 -9z"/>
<path d="M1633 2065 c0 -8 4 -15 9 -15 4 0 8 4 8 9 0 6 -4 12 -8 15 -5 3 -9
-1 -9 -9z"/>
<path d="M1673 2053 c-7 -3 -13 -12 -13 -21 0 -13 3 -13 16 4 14 18 15 18 9
-6 -5 -22 -5 -23 6 -7 12 20 2 37 -18 30z"/>
<path d="M1615 2020 c3 -5 8 -10 11 -10 2 0 4 5 4 10 0 6 -5 10 -11 10 -5 0
-7 -4 -4 -10z"/>
<path d="M1710 1978 c0 -6 3 -8 7 -5 3 4 12 2 20 -5 11 -8 12 -7 7 6 -7 18
-34 22 -34 4z"/>
<path d="M1737 1929 c4 -13 8 -18 11 -10 2 7 -1 18 -6 23 -8 8 -9 4 -5 -13z"/>
<path d="M1650 1921 c0 -6 4 -13 10 -16 6 -3 7 1 4 9 -7 18 -14 21 -14 7z"/>
<path d="M1893 1805 c0 -8 3 -13 5 -10 3 3 10 0 17 -5 8 -7 12 -5 12 5 0 8 -3
13 -5 10 -3 -3 -10 0 -17 5 -8 7 -12 5 -12 -5z"/>
<path d="M2139 1633 c-13 -16 -12 -17 4 -4 9 7 17 15 17 17 0 8 -8 3 -21 -13z"/>
</g>
</svg>
